<?xml version="1.0" encoding="UTF-8"?>
<svg width="150px" height="150px" viewBox="0 0 150 150" version="1.1" xmlns="http://www.w3.org/2000/svg" xmlns:xlink="http://www.w3.org/1999/xlink">
    <title>repeat</title>
    <g id="repeat" stroke="none" stroke-width="1" fill="none" fill-rule="evenodd">
        <path d="M97.4431196,35.0166836 C97.0729264,35.0513362 96.7009548,35.1436058 96.3447148,35.2883239 C94.923551,35.8709551 93.9994664,37.2423114 93.9994664,38.7609114 L93.9994664,46.2787331 L44.6008552,46.2787331 C40.4473333,46.2787331 37.0006872,49.6878292 37.0006872,53.7965548 L37.0006872,72.5911091 C36.9816883,73.9467074 37.7016752,75.2076169 38.8853327,75.8910108 C40.0689901,76.5744047 41.5329339,76.5744047 42.7165913,75.8910108 C43.9002487,75.2076169 44.6202357,73.9467074 44.6008552,72.5911091 L44.6008552,53.7965548 L93.9994664,53.7965548 L93.9994664,61.3143765 C93.9994664,62.8329765 94.9235548,64.2043328 96.3447148,64.786964 C96.8158978,64.9786685 97.3091733,65.0732874 97.7993595,65.0732874 C98.7873318,65.0732874 99.7602222,64.6899958 100.486002,63.9720438 L111.885681,52.6953112 C113.37144,51.2255771 113.37144,48.8497105 111.885681,47.3799767 L100.486002,36.1032441 C99.6709247,35.2969574 98.5536991,34.9127264 97.4431196,35.0166836 Z M109.139666,73.6019989 C107.043963,73.6344048 105.370446,75.3391425 105.399146,77.4123016 L105.399146,96.2068559 L56.0005347,96.2068559 L56.0005347,88.6890342 C56.0005347,87.1704342 55.0764481,85.7990783 53.6552881,85.2164471 C53.1841013,85.0247427 52.6908277,84.9301234 52.2006415,84.9301234 C51.2126693,84.9301234 50.2397777,85.3134157 49.5139985,86.0313677 L38.114319,97.3081003 C36.6285603,98.7778344 36.6285603,101.157458 38.114319,102.623433 L49.5139985,113.900166 C50.6007675,114.975214 52.2303282,115.293959 53.6552881,114.715086 C55.0764481,114.132455 56.0005347,112.764858 56.0005347,111.242499 L56.0005347,103.724678 L105.399146,103.724678 C109.552669,103.724678 112.999289,100.315582 112.999289,96.2068559 L112.999289,77.4123016 C113.012997,76.3962668 112.610672,75.4178737 111.883627,74.700053 C111.156582,73.9822324 110.166749,73.5861298 109.139666,73.6019989 Z" id="Shape" fill="#FFFFFF" fill-rule="nonzero"></path>
    </g>
</svg>