<?xml version="1.0" encoding="UTF-8"?>
<svg width="150px" height="150px" viewBox="0 0 150 150" version="1.1" xmlns="http://www.w3.org/2000/svg" xmlns:xlink="http://www.w3.org/1999/xlink">
    <title>shuffle</title>
    <g id="shuffle" stroke="none" stroke-width="1" fill="none" fill-rule="evenodd">
        <g id="icons8-shuffle" transform="translate(24, 35)" fill="#FFFFFF" fill-rule="nonzero">
            <path d="M77.5339383,0 L77.5339383,12.15 L68.0565241,12.15 C59.8794239,12.15 52.2370744,16.216524 47.6999982,22.9710937 L40.8348458,33.1989273 L33.9696933,22.9710937 C29.4360224,16.2191715 21.7902676,12.15 13.6131666,12.15 L4.13575322,12.15 C2.66519645,12.1293438 1.29735828,12.8967199 0.556010693,14.158285 C-0.185336898,15.4198501 -0.185336898,16.9801499 0.556010693,18.241715 C1.29735828,19.5032801 2.66519645,20.2706562 4.13575322,20.25 L13.6131666,20.25 C19.0718162,20.25 24.1578443,22.9569835 27.1841852,27.4640625 L35.9368544,40.5 L27.1841852,53.5359375 C24.1578443,58.0430165 19.0718166,60.75 13.6131666,60.75 L4.13575322,60.75 C2.66519645,60.7293438 1.29735828,61.4967199 0.556010693,62.758285 C-0.185336898,64.0198501 -0.185336898,65.5801499 0.556010693,66.841715 C1.29735828,68.1032801 2.66519645,68.8706562 4.13575322,68.85 L13.6131666,68.85 C21.790268,68.85 29.4360228,64.7808273 33.9696933,58.0289062 L40.8348458,47.8010727 L47.6999982,58.0289062 C52.2370744,64.783476 59.8794239,68.85 68.0565241,68.85 L77.5339383,68.85 L77.5339383,81 L102,64.8 L77.5339383,48.6 L77.5339383,60.75 L68.0565241,60.75 C62.5978766,60.75 57.5165977,58.0484677 54.4855055,53.5359375 L45.7328371,40.5 L54.4855055,27.4640625 C57.5165977,22.9515322 62.5978766,20.25 68.0565241,20.25 L77.5339383,20.25 L77.5339383,32.4 L102,16.2 L77.5339383,0 Z" id="Path"></path>
        </g>
    </g>
</svg>